# xmcd CD database file
#
# Track frame offsets:
# 150
# 13586
# 27480
# 41228
# 56619
# 67823
# 81500
# 100554
# 114177
# 126682
# 139834
# 155257
# 169397
# 186965
# 203759
# 217325
# 230702
# 243837
# 258596
# 272127
#
# Disc length: 3856 seconds
# Revision: 2
# Processed by: cddbd v1.5.2PL0 Copyright (c) Steve Scherf et al.
# Submitted via: MusicBin 0.4
#
DISCID=2c0f0e14
DTITLE=Louis Armstrong - St. Louis Blues [CD2]
DYEAR=2006
DGENRE=Swing
TTITLE0=Do You Know What it Means to Miss New Orleans?
TTITLE1=That Lucky Old Sun
TTITLE2=C'est si Bon
TTITLE3=La Vie en Rose
TTITLE4=Gone Fishin'
TTITLE5=Dream a Little Dream of Me
TTITLE6=What Did I Do to Be so Black and Blue?
TTITLE7=I Believe
TTITLE8=Among My Souvenirs
TTITLE9=You Won't Be Satisfied (Until You Break My Heart)
TTITLE10=Sugar
TTITLE11=Where the Blues Were Born in New Orleans
TTITLE12=Ain't Misbehavin'
TTITLE13=Pennies from Heaven
TTITLE14=I Want a Little Girl
TTITLE15=Mahogany Hall Stomp
TTITLE16=Save It, Pretty Mama
TTITLE17=Back o' Town Blues
TTITLE18=Fifty-Fifty Blues
TTITLE19=New Orleans Function (Free as a Bird/Oh Didn't He Ramble)
EXTD=YEAR: 2006
EXTT0=\nYEAR: 1946
EXTT1=\nYEAR: 1949
EXTT2=\nYEAR: 1950
EXTT3=\nYEAR: 1950
EXTT4=\nYEAR: 1951
EXTT5=\nYEAR: 1946
EXTT6=\nYEAR: 1947
EXTT7=\nYEAR: 1947
EXTT8=\nYEAR: 1942
EXTT9=\nYEAR: 1946
EXTT10=\nYEAR: 1947
EXTT11=\nYEAR: 1946
EXTT12=\nYEAR: 1947
EXTT13=\nYEAR: 1947
EXTT14=\nYEAR: 1946
EXTT15=\nYEAR: 1947
EXTT16=\nYEAR: 1947
EXTT17=\nYEAR: 1946
EXTT18=\nYEAR: 1947
EXTT19=\nYEAR: 1950
PLAYORDER=
